<svg width="1071" height="1071" xmlns="http://www.w3.org/2000/svg" xmlns:xlink="http://www.w3.org/1999/xlink" overflow="hidden"><defs><clipPath id="clip0"><rect x="371" y="389" width="1071" height="1071"/></clipPath></defs><g clip-path="url(#clip0)" transform="translate(-371 -389)"><path d="M1441.84 924.903C1441.84 1220.37 1202.31 1459.9 906.841 1459.9 611.369 1459.9 371.841 1220.37 371.841 924.903 371.841 629.43 611.369 389.903 906.841 389.903 1202.31 389.903 1441.84 629.43 1441.84 924.903Z" fill="#1DA2F8" fill-rule="evenodd"/><path d="M1351.84 889.903C1351.84 1145.61 1144.77 1352.9 889.341 1352.9 633.909 1352.9 426.841 1145.61 426.841 889.903 426.841 634.195 633.909 426.902 889.341 426.902 1144.77 426.902 1351.84 634.195 1351.84 889.903Z" fill="#96D5FC" fill-rule="evenodd"/><path d="M1334.84 960.903C1334.84 1216.61 1127.55 1423.9 871.841 1423.9 616.134 1423.9 408.841 1216.61 408.841 960.903 408.841 705.195 616.134 497.903 871.841 497.903 1127.55 497.903 1334.84 705.195 1334.84 960.903Z" fill="#B5E2FD" fill-rule="evenodd"/><path d="M1410.84 925.903C1410.84 1181.61 1203.55 1388.9 947.841 1388.9 692.134 1388.9 484.841 1181.61 484.841 925.903 484.841 670.195 692.134 462.903 947.841 462.903 1203.55 462.903 1410.84 670.195 1410.84 925.903Z" fill="#A2DAFC" fill-rule="evenodd"/><path d="M1369.84 925.903C1369.84 1181.61 1162.55 1388.9 906.841 1388.9 651.134 1388.9 443.841 1181.61 443.841 925.903 443.841 670.195 651.134 462.903 906.841 462.903 1162.55 462.903 1369.84 670.195 1369.84 925.903Z" fill="#4CB8FA" fill-rule="evenodd"/><path d="M1098.98 1152.19C1094.07 1152.18 1089.58 1151.21 1085.43 1149.46 1079.22 1146.84 1073.83 1142.38 1070.06 1136.8 1068.18 1134.01 1066.7 1130.96 1065.69 1127.71 1064.68 1124.46 1064.13 1121.02 1064.13 1117.33L1064.13 803.616 1098.98 803.616C1118.24 803.616 1133.84 788.009 1133.84 768.759 1133.84 749.509 1118.24 733.902 1098.98 733.902L680.698 733.902C661.448 733.902 645.841 749.509 645.841 768.759 645.843 788.007 661.451 803.614 680.7 803.614L715.557 803.614 715.557 1187.04C715.557 1206.3 731.162 1221.9 750.415 1221.9 769.662 1221.9 785.267 1206.3 785.267 1187.04L785.267 803.614 994.416 803.614 994.416 1117.33C994.41 1131.67 997.341 1145.52 1002.65 1158.04 1010.61 1176.86 1023.82 1192.76 1040.49 1204.02 1048.83 1209.66 1058.05 1214.13 1067.9 1217.19 1077.75 1220.26 1088.23 1221.9 1098.98 1221.9 1118.23 1221.9 1133.84 1206.3 1133.84 1187.04 1133.84 1167.8 1118.24 1152.19 1098.98 1152.19Z" fill="#1265C0" fill-rule="evenodd"/><path d="M1290.26 768.903 1214.44 768.903C1210.25 768.911 1206.85 765.514 1206.84 761.316 1206.84 759.293 1207.64 757.351 1209.07 755.922L1268.8 696.034C1277.65 687.123 1282.63 675.075 1282.67 662.503 1282.67 645.713 1269.1 632.102 1252.35 632.102 1235.6 632.102 1222.02 645.713 1222.02 662.503L1222.02 670.103C1222.02 674.3 1218.62 677.703 1214.44 677.703 1210.25 677.703 1206.85 674.3 1206.85 670.103L1206.85 662.503C1206.85 637.319 1227.22 616.903 1252.35 616.903 1277.47 616.903 1297.84 637.319 1297.84 662.503 1297.89 679.125 1291.3 695.076 1279.54 706.795L1232.74 753.703 1290.26 753.703C1294.44 753.703 1297.84 757.106 1297.84 761.303 1297.84 765.5 1294.44 768.903 1290.26 768.903Z" fill="#FFFFFF" fill-rule="evenodd"/><path d="M1101.74 1152.19C1096.65 1152.18 1091.99 1151.21 1087.7 1149.46 1081.26 1146.84 1075.67 1142.38 1071.78 1136.8 1069.83 1134.01 1068.29 1130.96 1067.25 1127.71 1066.21 1124.46 1065.64 1121.02 1065.64 1117.33L1065.64 803.616 1101.74 803.616C1121.67 803.616 1137.84 788.009 1137.84 768.759 1137.84 749.509 1121.67 733.902 1101.74 733.902L908.405 733.902C888.469 733.902 891.34 747.671 891.34 766.921 891.346 786.168 886.564 803.614 906.506 803.614L959.595 804.656 993.423 803.614 993.423 1117.33C993.417 1131.67 996.451 1145.52 1001.95 1158.04 1010.2 1176.86 1023.88 1192.76 1041.15 1204.02 1049.78 1209.66 1059.34 1214.13 1069.54 1217.19 1079.74 1220.26 1090.6 1221.9 1101.73 1221.9 1121.67 1221.9 1137.84 1206.3 1137.84 1187.04 1137.84 1167.8 1121.67 1152.19 1101.74 1152.19Z" fill="#FAFAFA" fill-rule="evenodd"/></g></svg>