<svg width="1760" height="1760" xmlns="http://www.w3.org/2000/svg" xmlns:xlink="http://www.w3.org/1999/xlink" overflow="hidden"><defs><clipPath id="clip0"><rect x="440" y="270" width="1760" height="1760"/></clipPath></defs><g clip-path="url(#clip0)" transform="translate(-440 -270)"><path d="M2200 1150C2200 1636.01 1806.01 2030 1320 2030 833.99 2030 440 1636.01 440 1150 440 663.989 833.99 270 1320 270 1806.01 270 2200 663.989 2200 1150Z" fill="#1DA2F8" fill-rule="evenodd"/><path d="M2053 1092C2053 1512.84 1712.06 1854 1291.5 1854 870.935 1854 530 1512.84 530 1092 530 671.159 870.935 330 1291.5 330 1712.06 330 2053 671.159 2053 1092Z" fill="#96D5FC" fill-rule="evenodd"/><path d="M2025 1209.5C2025 1630.06 1683.84 1971 1263 1971 842.159 1971 501 1630.06 501 1209.5 501 788.935 842.159 448 1263 448 1683.84 448 2025 788.935 2025 1209.5Z" fill="#B5E2FD" fill-rule="evenodd"/><path d="M2149 1151C2149 1571.84 1807.84 1913 1387 1913 966.159 1913 625 1571.84 625 1151 625 730.159 966.159 389 1387 389 1807.84 389 2149 730.159 2149 1151Z" fill="#A2DAFC" fill-rule="evenodd"/><path d="M2082 1151C2082 1571.84 1740.84 1913 1320 1913 899.159 1913 558 1571.84 558 1151 558 730.159 899.159 389 1320 389 1740.84 389 2082 730.159 2082 1151Z" fill="#4CB8FA" fill-rule="evenodd"/><path d="M1636.57 1524.29C1628.48 1524.28 1621.07 1522.68 1614.24 1519.8 1604.01 1515.49 1595.12 1508.14 1588.92 1498.96 1585.82 1494.37 1583.38 1489.35 1581.72 1484.01 1580.06 1478.66 1579.15 1473 1579.15 1466.93L1579.15 950.713 1636.57 950.713C1668.29 950.713 1694 925.032 1694 893.356 1694 861.681 1668.29 836 1636.57 836L947.428 836C915.713 836 890 861.681 890 893.356 890.003 925.028 915.717 950.709 947.431 950.709L1004.86 950.709 1004.86 1581.64C1004.86 1613.32 1030.57 1639 1062.29 1639 1094 1639 1119.71 1613.32 1119.71 1581.64L1119.71 950.709 1464.29 950.709 1464.29 1466.93C1464.28 1490.53 1469.11 1513.31 1477.85 1533.92 1490.97 1564.88 1512.73 1591.04 1540.2 1609.58 1553.94 1618.85 1569.13 1626.21 1585.36 1631.25 1601.58 1636.3 1618.85 1639 1636.57 1639 1668.28 1639 1693.99 1613.32 1693.99 1581.64 1693.99 1549.97 1668.29 1524.29 1636.57 1524.29Z" fill="#262626" fill-rule="evenodd"/><path d="M1951.5 893 1826.52 893C1819.62 893.013 1814.01 887.426 1814 880.522 1813.99 877.194 1815.32 874.001 1817.67 871.65L1916.13 773.15C1930.72 758.494 1938.93 738.678 1939 718 1939 690.386 1916.62 668 1889.01 668 1861.4 668 1839.02 690.386 1839.02 718L1839.02 730.501C1839.02 737.404 1833.42 743.001 1826.52 743.001 1819.62 743.001 1814.02 737.404 1814.02 730.501L1814.02 718C1814.02 676.579 1847.59 643 1889.01 643 1930.42 643 1964 676.579 1964 718 1964.08 745.34 1953.21 771.574 1933.83 790.85L1856.69 868.001 1951.5 868.001C1958.4 868.001 1964 873.597 1964 880.501 1964 887.404 1958.4 893 1951.5 893Z" fill="#FFFFFF" fill-rule="evenodd"/><path d="M1640.51 1524.29C1632.13 1524.28 1624.45 1522.68 1617.37 1519.8 1606.77 1515.49 1597.56 1508.14 1591.14 1498.96 1587.93 1494.37 1585.4 1489.35 1583.68 1484.01 1581.96 1478.66 1581.02 1473 1581.02 1466.93L1581.02 950.713 1640.51 950.713C1673.36 950.713 1700 925.032 1700 893.356 1700 861.681 1673.36 836 1640.51 836L1321.94 836C1289.09 836 1293.82 858.656 1293.82 890.331 1293.83 922.003 1285.95 950.709 1318.81 950.709L1406.29 952.425 1462.03 950.709 1462.03 1466.93C1462.02 1490.53 1467.02 1513.31 1476.08 1533.92 1489.67 1564.88 1512.22 1591.04 1540.67 1609.58 1554.9 1618.85 1570.64 1626.21 1587.45 1631.25 1604.26 1636.3 1622.15 1639 1640.5 1639 1673.35 1639 1699.99 1613.32 1699.99 1581.64 1699.99 1549.97 1673.36 1524.29 1640.51 1524.29Z" fill="#FAFAFA" fill-rule="evenodd"/></g></svg>