<svg id="Capa_1" enable-background="new 0 0 512 512" height="512" viewBox="0 0 512 512" width="512" xmlns="http://www.w3.org/2000/svg"><g><g><path clip-rule="evenodd" d="m114.164 333.285h69.749 144.146 69.777 25.309c39.112 0 70.854-31.747 70.854-70.865 0-28.062-16.297-52.298-39.934-63.778 3.656-9.666 5.668-20.126 5.668-31.067 0-48.386-39.253-87.617-87.633-87.617-6.207 0-12.244.624-18.082 1.871-13.149-41.641-52.062-71.829-98.032-71.829s-84.884 30.188-98.034 71.829c-5.81-1.247-11.875-1.871-18.082-1.871-48.379 0-87.604 39.231-87.604 87.617 0 10.941 2.012 21.401 5.668 31.067-23.637 11.48-39.934 35.716-39.934 63.778 0 39.117 31.714 70.865 70.854 70.865z" fill="#98eaf9" fill-rule="evenodd"/></g><g><path clip-rule="evenodd" d="m182.581 471.528 8.304-8.277c11.563 7.313 24.459 12.756 38.261 15.845v11.707c0 6.151 5.016 11.197 11.195 11.197h31.318c6.15 0 11.195-5.046 11.195-11.197v-11.707c13.774-3.09 26.67-8.532 38.261-15.845l8.276 8.277c4.336 4.337 11.478 4.337 15.815 0l22.163-22.167c4.336-4.365 4.336-11.48 0-15.817l-8.276-8.277c7.312-11.594 12.754-24.491 15.871-38.295h11.677c6.15 0 11.195-5.017 11.195-11.168v-42.519h-69.777c3.118 8.362 4.846 17.404 4.846 26.844 0 42.491-34.435 76.902-76.92 76.902-42.456 0-76.891-34.412-76.891-76.902 0-9.439 1.701-18.482 4.818-26.844h-69.749v42.519c0 6.151 5.016 11.168 11.167 11.168h11.705c3.089 13.804 8.531 26.702 15.871 38.295l-8.276 8.277c-4.365 4.337-4.365 11.452 0 15.817l22.135 22.167c4.366 4.337 11.479 4.337 15.816 0z" fill="#c193da" fill-rule="evenodd"/></g><g><path clip-rule="evenodd" d="m179.095 360.129c0 42.491 34.435 76.902 76.891 76.902 42.484 0 76.92-34.412 76.92-76.902 0-9.439-1.729-18.482-4.846-26.844h-144.147c-3.118 8.362-4.818 17.405-4.818 26.844z" fill="#fff" fill-rule="evenodd"/></g><g><path d="m466.137 193.904c2.39-8.546 3.598-17.368 3.598-26.329 0-53.826-43.798-97.617-97.633-97.617-3.871 0-7.709.222-11.482.663-7.724-19.216-20.508-35.807-37.335-48.342-19.567-14.575-42.839-22.279-67.3-22.279-24.46 0-47.731 7.704-67.298 22.279-16.827 12.535-29.611 29.124-37.335 48.339-3.765-.438-7.604-.66-11.483-.66-53.818 0-97.604 43.791-97.604 97.617 0 8.961 1.208 17.783 3.598 26.329-23.559 14.711-37.863 40.24-37.863 68.516 0 44.589 36.271 80.865 80.854 80.865h15.31v32.519c0 11.673 9.495 21.169 21.166 21.169h3.951c2.687 9.276 6.392 18.214 11.073 26.706l-2.772 2.773c-4.005 3.979-6.215 9.291-6.225 14.956-.009 5.679 2.193 11.015 6.197 15.019l22.163 22.195c8.273 8.221 21.702 8.209 29.923-.012l2.825-2.815c8.484 4.673 17.412 8.372 26.681 11.056v3.953c0 11.688 9.508 21.196 21.194 21.196h31.318c11.687 0 21.194-9.509 21.194-21.196v-3.956c9.25-2.684 18.173-6.381 26.665-11.051l2.801 2.803c8.26 8.26 21.698 8.259 29.958-.001l22.187-22.19c8.218-8.273 8.208-21.701-.023-29.934l-2.803-2.804c4.668-8.491 8.372-17.426 11.069-26.698h3.935c11.687 0 21.194-9.496 21.194-21.169v-32.519h15.31c44.583 0 80.854-36.276 80.854-80.865.001-28.276-14.303-53.805-37.862-68.516zm-78.301 181.9c0 .623-.559 1.169-1.194 1.169h-11.677c-4.674 0-8.725 3.237-9.754 7.797-2.815 12.461-7.72 24.292-14.576 35.163-2.492 3.951-1.917 9.102 1.387 12.405l8.275 8.277c.438.438.427 1.247.001 1.676l-22.163 22.166c-.268.268-.603.324-.836.324-.234 0-.569-.057-.836-.323l-8.275-8.277c-3.305-3.304-8.457-3.88-12.408-1.387-10.883 6.866-22.697 11.76-35.114 14.545-4.566 1.024-7.812 5.078-7.812 9.758v11.707c0 .626-.569 1.196-1.194 1.196h-31.318c-.637 0-1.194-.559-1.194-1.196v-11.707c0-4.682-3.247-8.736-7.815-9.759-12.441-2.785-24.251-7.677-35.101-14.538-3.948-2.497-9.098-1.929-12.405 1.369l-8.315 8.288c-.445.443-1.238.433-1.668.005l-22.139-22.171c-.286-.286-.346-.62-.346-.851.001-.32.109-.591.345-.825l8.276-8.277c3.308-3.308 3.88-8.468 1.378-12.42-6.876-10.859-11.775-22.679-14.562-35.13-1.022-4.568-5.077-7.815-9.759-7.815h-11.707c-.632 0-1.166-.535-1.166-1.169v-32.519h46.583c-1.085 5.517-1.652 11.145-1.652 16.844 0 47.918 38.979 86.902 86.891 86.902 47.928 0 86.92-38.984 86.92-86.902 0-5.685-.572-11.312-1.668-16.844h46.599v32.519zm35.31-52.519h-122.267c-5.522 0-10 4.478-10 10s4.478 10 10 10h19.854c1.435 5.494 2.173 11.133 2.173 16.844 0 36.89-30.021 66.902-66.92 66.902-36.884 0-66.891-30.013-66.891-66.902 0-5.736.731-11.375 2.151-16.844h19.847c5.522 0 10-4.478 10-10s-4.478-10-10-10h-122.239c-33.555 0-60.854-27.304-60.854-60.865 0-23.515 13.144-44.506 34.303-54.783 4.652-2.26 6.814-7.695 4.984-12.533-3.332-8.808-5.021-18.069-5.021-27.528 0-42.798 34.812-77.617 77.604-77.617 5.514 0 10.891.555 15.983 1.647 5.041 1.083 10.081-1.848 11.635-6.766 12.248-38.782 47.813-64.84 88.497-64.84 40.686 0 76.25 26.057 88.498 64.84 1.552 4.914 6.584 7.847 11.625 6.768 5.125-1.095 10.506-1.649 15.993-1.649 42.807 0 77.633 34.819 77.633 77.617 0 9.459-1.689 18.721-5.021 27.528-1.83 4.838.332 10.273 4.984 12.533 21.159 10.277 34.303 31.268 34.303 54.783 0 33.561-27.299 60.865-60.854 60.865z"/><path d="m361.613 141.875c-5.522 0-10 4.478-10 10v98.644c0 5.522 4.478 10 10 10s10-4.478 10-10v-98.644c0-5.522-4.477-10-10-10z"/><path d="m281.974 141.875h-27.974c-5.433 0-10 4.551-10 10v100.458c0 5.522 4.478 10 10 10s10-4.478 10-10v-33.688c6.22-.038 13.864-.078 17.974-.078 21.454 0 38.908-17.202 38.908-38.346s-17.454-38.346-38.908-38.346zm0 56.691c-4.092 0-11.626.039-17.826.077-.03-6.391-.062-14.234-.062-18.423 0-3.55-.025-11.689-.049-18.346h17.938c10.249 0 18.908 8.401 18.908 18.346s-8.66 18.346-18.909 18.346z"/><path d="m175.241 149.761c-.026-.069-.053-.139-.081-.207-1.882-4.669-6.346-7.687-11.372-7.687s-9.49 3.018-11.372 7.687c-.024.06-.048.119-.07.179l-37.723 99.041c-1.966 5.161.624 10.938 5.785 12.904 5.162 1.966 10.938-.624 12.904-5.785l6.94-18.221h46.794l6.867 18.192c1.511 4.004 5.316 6.472 9.357 6.472 1.173 0 2.366-.208 3.529-.647 5.167-1.95 7.774-7.72 5.824-12.887zm-27.371 67.911 15.885-41.706 15.742 41.706z"/><path d="m255.985 323.285c-5.522 0-10 4.478-10 10s4.478 10 10 10h.058c5.522 0 9.972-4.478 9.972-10s-4.507-10-10.03-10z"/></g></g></svg>