<svg width="234" height="247" xmlns="http://www.w3.org/2000/svg" xmlns:xlink="http://www.w3.org/1999/xlink" overflow="hidden"><defs><clipPath id="clip0"><rect x="406" y="216" width="234" height="247"/></clipPath></defs><g clip-path="url(#clip0)" transform="translate(-406 -216)"><path d="M229.885 145.899C229.883 177.239 229.884 208.579 229.882 239.918 229.882 245 229.593 245.281 224.496 245.285 212.126 245.291 199.757 245.297 187.387 245.302 185.048 245.303 184.686 245.004 184.473 242.672 184.351 241.345 184.29 240.009 184.289 238.678 184.266 180.323 184.254 121.968 184.243 63.6133 184.242 61.4751 184.212 59.3508 183.574 57.2713 182.261 52.9887 179.467 50.6721 174.942 50.5636 166.867 50.3697 158.786 50.1823 150.71 50.5418 144.26 50.8289 138.288 56.7773 137.816 63.323 137.74 64.3868 137.732 65.4569 137.732 66.5242 137.724 91.3504 137.72 116.177 137.716 141.002 137.716 144.069 136.892 144.924 133.772 144.926 121.565 144.937 109.358 144.929 97.1519 144.926 96.9892 144.926 96.8262 144.925 96.6638 144.919 93.2517 144.779 92.7617 144.3 92.7603 140.893 92.7496 115.64 92.7438 90.3863 92.7581 65.133 92.7593 63.1948 92.5286 61.308 92.0339 59.4375 90.8427 54.9338 87.8211 52.4948 83.2207 51.842 82.0953 51.6822 80.9594 51.5471 79.8245 51.5097 72.236 51.2594 64.6472 51.2326 57.0571 51.4841 50.9013 51.6883 46.3101 55.8785 45.636 61.9064 45.4634 63.4506 45.402 64.9897 45.4024 66.5385 45.4066 90.0832 45.2781 113.629 45.4513 137.173 45.5613 152.12 45.4865 167.066 45.5748 182.014 45.5881 184.26 45.7077 186.483 46.3762 188.662 47.2282 191.439 49.0306 193.263 51.8076 194.161 53.5119 194.713 55.2538 195.146 57.0582 195.152 70.6206 195.2 84.183 195.219 97.7452 195.267 109.299 195.307 120.852 195.372 132.406 195.434 135.087 195.449 135.538 195.888 135.539 198.51 135.546 212.764 135.546 227.019 135.536 241.274 135.534 244.599 134.832 245.269 131.392 245.278 125.967 245.291 120.542 245.243 115.117 245.294 105.409 245.383 95.6985 245.434 85.9934 245.675 77.8629 245.877 69.7341 246.137 61.6017 246.302 46.5347 246.61 33.4885 241.505 21.8565 232.373 14.0503 226.243 7.69492 219.015 3.92938 209.793 1.3747 203.537 0.00712733 197.028 0.00603123 190.286-0.000537193 148.536-0.0243108 106.785 0.10441 65.035 0.123803 58.762-0.121281 52.4481 1.05502 46.2011 3.16347 35.0046 8.468 25.45 16.1252 17.0442 18.3382 14.6147 20.6791 12.3338 23.217 10.2288 28.3392 5.98058 34.5063 4.33614 40.8594 2.91687 51.6216 0.512534 62.5007-0.316155 73.4881 0.118353 80.6352 0.400944 87.7534 1.09495 94.8264 2.19238 100.852 3.12742 105.736 5.91548 109.332 10.7914 111.132 13.2333 113.643 14.235 116.585 14.4877 119.761 14.7607 122.148 13.7338 124.11 11.0848 128.617 4.99813 135.183 2.34937 142.505 1.35046 153.824-0.193791 165.182-0.377722 176.571 0.615042 183.227 1.19516 189.807 2.18469 196.296 3.70878 207.241 6.27996 215.175 12.8194 221.189 21.9945 227.332 31.3678 229.901 41.6425 229.895 52.6807 229.875 83.7535 229.888 114.826 229.885 145.899" fill="#4B91E2" fill-rule="evenodd" transform="matrix(1 0 0 1.00278 406 216)"/></g></svg>